{"title":"(18+) 31st Night (2013) Hindi DvDRip [385MB] -AshishRocks- { DAK","uid":9427328,"size":405483930,"categoryP":"video","categoryS":"movies","magnet":"?xt=urn:btih:3197cc272637410ea1134fdca115a38f9d2d0405&amp;dn=%2818%2B%29+31st+Night+%282013%29+Hindi+DvDRip+%5B385MB%5D+-AshishRocks-+%7B+DAK&amp;tr=udp%3A%2F%2Ftracker.openbittorrent.com%3A80&amp;tr=udp%3A%2F%2Fopen.demonii.com%3A1337&amp;tr=udp%3A%2F%2Ftracker.coppersurfer.tk%3A6969&amp;tr=udp%3A%2F%2Fexodus.desync.com%3A6969","seeders":1,"leechers":0,"uploader":"ashish.p","files":2,"time":1388735178,"description":"General\n\nComplete name : (18+) 31st Night (2013) Hindi DvDRip [385MB] -AshishRocks- { DAKU RG }.mp4\nFormat :\tMPEG-4\nFormat profile : Base Media\nCodec ID : isom\nFile size :\t387 MiB\nDuration :\t1h 19mn\nOverall bit rate : 679 Kbps\nWriting application :\tLavf54.29.104\n\nVideo\n\nID :\t1\nFormat :\tAVC\nFormat/Info : Advanced Video Codec\nFormat profile : &lt;a class=&quot;__cf_email__&quot; href=&quot;/cdn-cgi/l/email-protection&quot; data-cfemail=&quot;185579717658542b3628&quot;&gt;[email&amp;#160;protected]&lt;/a&gt;&lt;script cf-hash='f9e31' type=&quot;text/javascript&quot;&gt;\n/* &lt;![CDATA[ */!function(){try{var t=&quot;currentScript&quot;in document?document.currentScript:function(){for(var t=document.getElementsByTagName(&quot;script&quot;),e=t.length;e--;)if(t[e].getAttribute(&quot;cf-hash&quot;))return t[e]}();if(t&amp;&amp;t.previousSibling){var e,r,n,i,c=t.previousSibling,a=c.getAttribute(&quot;data-cfemail&quot;);if(a){for(e=&quot;&quot;,r=parseInt(a.substr(0,2),16),n=2;a.length-n;n+=2)i=parseInt(a.substr(n,2),16)^r,e+=String.fromCharCode(i);e=document.createTextNode(e),c.parentNode.replaceChild(e,c)}}}catch(u){}}();/* ]]&gt; */&lt;/script&gt;\nFormat settings, CABAC :\tYes\nFormat settings, ReFrames :\t3 frames\nCodec ID : avc1\nCodec ID/Info : Advanced Video Coding\nDuration :\t1h 19mn\nBit rate : 545 Kbps\nWidth : 654 pixels\nHeight : 480 pixels\nDisplay aspect ratio : 4:3\nOriginal display aspect ratio :\t4:3\nFrame rate mode : Variable\nFrame rate : 29.970 fps\nMinimum frame rate : 29.970 fps\nMaximum frame rate : 3 750.000 fps\nColor space :\tYUV\nChroma subsampling : 4:2:0\nBit depth : 8 bits\nScan type : Progressive\nBits/(Pixel*Frame) :\t0.058\nStream size : 310 MiB (80%)\n\nAudio\n\nID :\t2\nFormat :\tAAC\nFormat/Info :\tAdvanced Audio Codec\nFormat profile : LC\nCodec ID : 40\nDuration :\t1h 19mn\nBit rate mode :\tConstant\nBit rate : 126 Kbps\nChannel(s) : 2 channels\nChannel positions :\tFront: L R\nSampling rate : 44.1 KHz\nCompression mode : Lossy\nStream size : 71.5 MiB (19%)\nLanguage : Hindi\nDefault : Yes \nForced : No","torrent":{"xt":"urn:btih:3197cc272637410ea1134fdca115a38f9d2d0405","amp;dn":"%2818%2B%29+31st+Night+%282013%29+Hindi+DvDRip+%5B385MB%5D+-AshishRocks-+%7B+DAK","amp;tr":["udp%3A%2F%2Ftracker.openbittorrent.com%3A80","udp%3A%2F%2Fopen.demonii.com%3A1337","udp%3A%2F%2Ftracker.coppersurfer.tk%3A6969","udp%3A%2F%2Fexodus.desync.com%3A6969"],"infoHash":"3197cc272637410ea1134fdca115a38f9d2d0405","infoHashBuffer":{"type":"Buffer","data":[49,151,204,39,38,55,65,14,161,19,79,220,161,21,163,143,157,45,4,5]},"announce":[],"urlList":[]}}